<?xml version="1.0" encoding="UTF-8" standalone="no"?>
<!-- Created with Inkscape (http://www.inkscape.org/) -->

<svg
   version="1.1"
   id="svg77871"
   xml:space="preserve"
   width="1013.3333"
   height="353.33334"
   viewBox="0 0 1013.3333 353.33334"
   xmlns="http://www.w3.org/2000/svg"
   xmlns:svg="http://www.w3.org/2000/svg"><defs
     id="defs77875"><clipPath
       clipPathUnits="userSpaceOnUse"
       id="clipPath77887"><path
         d="M 0,0 H 7595.53 V 2650 H 0 Z"
         id="path77885" /></clipPath></defs><g
     id="g77877"
     transform="matrix(1.3333333,0,0,-1.3333333,0,353.33333)"><g
       id="g77879"
       transform="scale(0.1)"><g
         id="g77881"><g
           id="g77883"
           clip-path="url(#clipPath77887)"><path
             d="M 5549.16,2285 H 7460"
             style="fill:#231f20;fill-opacity:1;fill-rule:nonzero;stroke:none"
             id="path77889" /><path
             d="m 7483.61,2295.25 c -16.52,4.99 -27.27,9.59 -40.53,14.92 v -50.45 c 4.74,2.26 24.01,9.93 40.53,14.92 17.7,5.34 33.75,9 44.15,10.31 -10.4,1.3 -26.45,4.96 -44.15,10.3"
             style="fill:#231f20;fill-opacity:1;fill-rule:nonzero;stroke:none"
             id="path77891" /><path
             d="M 5549.16,2285 H 7460"
             style="fill:none;stroke:#231f20;stroke-width:20;stroke-linecap:butt;stroke-linejoin:miter;stroke-miterlimit:4;stroke-dasharray:none;stroke-opacity:1"
             id="path77893" /><path
             d="m 7507.24,2305.5 c -33.07,9.99 -54.56,19.19 -81.09,29.83 v -100.89 c 9.49,4.52 48.02,19.86 81.09,29.84 35.39,10.69 67.48,18.01 88.29,20.61 -20.81,2.61 -52.9,9.92 -88.29,20.61"
             style="fill:#231f20;fill-opacity:1;fill-rule:nonzero;stroke:none"
             id="path77895" /><path
             d="M 2630,2285 H 4630"
             style="fill:#231f20;fill-opacity:1;fill-rule:nonzero;stroke:none"
             id="path77897" /><path
             d="m 4653.61,2295.25 c -16.52,4.99 -27.27,9.59 -40.53,14.92 v -50.45 c 4.74,2.26 24.01,9.93 40.53,14.92 17.7,5.34 33.75,9 44.15,10.31 -10.4,1.3 -26.45,4.96 -44.15,10.3"
             style="fill:#231f20;fill-opacity:1;fill-rule:nonzero;stroke:none"
             id="path77899" /><path
             d="M 2630,2285 H 4630"
             style="fill:none;stroke:#231f20;stroke-width:20;stroke-linecap:butt;stroke-linejoin:miter;stroke-miterlimit:4;stroke-dasharray:none;stroke-opacity:1"
             id="path77901" /><path
             d="m 4677.24,2305.5 c -33.07,9.99 -54.56,19.19 -81.09,29.83 v -100.89 c 9.49,4.52 48.02,19.86 81.09,29.84 35.39,10.69 67.48,18.01 88.29,20.61 -20.81,2.61 -52.9,9.92 -88.29,20.61"
             style="fill:#231f20;fill-opacity:1;fill-rule:nonzero;stroke:none"
             id="path77903" /><path
             d="M 0,2300 H 1640"
             style="fill:none;stroke:#231f20;stroke-width:20;stroke-linecap:butt;stroke-linejoin:miter;stroke-miterlimit:4;stroke-dasharray:none;stroke-opacity:1"
             id="path77905" /><path
             d="m 1687.24,2320.5 c -33.07,9.99 -54.56,19.19 -81.09,29.83 v -100.89 c 9.49,4.52 48.02,19.86 81.09,29.84 35.39,10.69 67.48,18.01 88.29,20.61 -20.81,2.61 -52.9,9.92 -88.29,20.61"
             style="fill:#231f20;fill-opacity:1;fill-rule:nonzero;stroke:none"
             id="path77907" /><path
             d="m 186.414,2055 h 1180.01 v 470 H 186.414 Z"
             style="fill:#ffffff;fill-opacity:1;fill-rule:nonzero;stroke:none"
             id="path77909" /><path
             d="m 186.414,2055 h 1180.01 v 470 H 186.414 Z"
             style="fill:none;stroke:#231f20;stroke-width:20;stroke-linecap:butt;stroke-linejoin:miter;stroke-miterlimit:4;stroke-dasharray:none;stroke-opacity:1"
             id="path77911" /><g
             id="g77913"
             transform="scale(10)"><text
               transform="matrix(1,0,0,-1,28.3586,223.717)"
               style="font-variant:normal;font-weight:normal;font-size:18px;font-family:Myriad;-inkscape-font-specification:Myriad-Roman;writing-mode:lr-tb;fill:#231f20;fill-opacity:1;fill-rule:nonzero;stroke:none"
               id="text77917"><tspan
                 x="0 9.5762138 19.259909 28.116121 37.8531 50.2551 61.9011 70.846802 75.14859 86.992371"
                 y="0"
                 id="tspan77915">PREROUTING</tspan></text></g><path
             d="m 6050.63,2045 h 1180 v 470 h -1180 z"
             style="fill:#ffffff;fill-opacity:1;fill-rule:nonzero;stroke:none"
             id="path77919" /><path
             d="m 6050.63,2045 h 1180 v 470 h -1180 z"
             style="fill:none;stroke:#231f20;stroke-width:20;stroke-linecap:butt;stroke-linejoin:miter;stroke-miterlimit:4;stroke-dasharray:none;stroke-opacity:1"
             id="path77921" /><g
             id="g77923"
             transform="scale(10)"><text
               transform="matrix(1,0,0,-1,608.938,222.717)"
               style="font-variant:normal;font-weight:normal;font-size:18px;font-family:Myriad;-inkscape-font-specification:Myriad-Roman;writing-mode:lr-tb;fill:#231f20;fill-opacity:1;fill-rule:nonzero;stroke:none"
               id="text77927"><tspan
                 x="0 9.5762444 21.978489 30.8512 39.797565 49.535446 61.937099 73.582855 82.52861 86.831001 98.674759"
                 y="0"
                 id="tspan77925">POSTROUTING</tspan></text></g><path
             d="m 3041.92,2050 h 1179.99 v 470 H 3041.92 Z"
             style="fill:#ffffff;fill-opacity:1;fill-rule:nonzero;stroke:none"
             id="path77929" /><path
             d="m 3041.92,2050 h 1179.99 v 470 H 3041.92 Z"
             style="fill:none;stroke:#231f20;stroke-width:20;stroke-linecap:butt;stroke-linejoin:miter;stroke-miterlimit:4;stroke-dasharray:none;stroke-opacity:1"
             id="path77931" /><g
             id="g77933"
             transform="scale(10)"><text
               transform="matrix(1,0,0,-1,323.808,223.217)"
               style="font-variant:normal;font-weight:normal;font-size:18px;font-family:Myriad;-inkscape-font-specification:Myriad-Roman;writing-mode:lr-tb;fill:#231f20;fill-opacity:1;fill-rule:nonzero;stroke:none"
               id="text77937"><tspan
                 x="0 8.7659998 21.167999 31.265818 45.467964 56.483963 66.167961"
                 y="0"
                 id="tspan77935">FORWARD</tspan></text></g><path
             d="m 5702.5,390 c 0,-209.859 -906.61,-380 -2025,-380 -1118.37,0 -2025,170.141 -2025,380 0,209.859 906.63,380 2025,380 1118.39,0 2025,-170.141 2025,-380"
             style="fill:#ffffff;fill-opacity:1;fill-rule:nonzero;stroke:none"
             id="path77939" /><path
             d="m 5702.5,390 c 0,-209.859 -906.61,-380 -2025,-380 -1118.37,0 -2025,170.141 -2025,380 0,209.859 906.63,380 2025,380 1118.39,0 2025,-170.141 2025,-380 z"
             style="fill:none;stroke:#231f20;stroke-width:20;stroke-linecap:butt;stroke-linejoin:miter;stroke-miterlimit:4;stroke-dasharray:none;stroke-opacity:1"
             id="path77941" /><g
             id="g77943"
             transform="scale(10)"><text
               transform="matrix(1,0,0,-1,304.436,34)"
               style="font-variant:normal;font-weight:normal;font-size:18px;font-family:Myriad;-inkscape-font-specification:Myriad-Roman;writing-mode:lr-tb;fill:#231f20;fill-opacity:1;fill-rule:nonzero;stroke:none"
               id="text77947"><tspan
                 x="0 9.2700605 15.047975 24.9473 32.903389 41.921612 49.049301 56.177299 66.095299 73.223297 77.039299 81.251297 91.150101 99.231682 107.90807 117.8263"
                 y="0"
                 id="tspan77945">Processus locaux</tspan></text></g><path
             d="m 5601.25,2275 c 0,-190.54 -185.8,-345 -415,-345 -229.2,0 -415,154.46 -415,345 0,190.54 185.8,345 415,345 229.2,0 415,-154.46 415,-345"
             style="fill:#ffffff;fill-opacity:1;fill-rule:nonzero;stroke:none"
             id="path77949" /><path
             d="m 5601.25,2275 c 0,-190.54 -185.8,-345 -415,-345 -229.2,0 -415,154.46 -415,345 0,190.54 185.8,345 415,345 229.2,0 415,-154.46 415,-345 z"
             style="fill:none;stroke:#231f20;stroke-width:20;stroke-linecap:butt;stroke-linejoin:miter;stroke-miterlimit:4;stroke-dasharray:none;stroke-opacity:1"
             id="path77951" /><g
             id="g77953"
             transform="scale(10)"><text
               transform="matrix(1,0,0,-1,485.416,233.018)"
               style="font-variant:normal;font-weight:normal;font-size:18px;font-family:Myriad;-inkscape-font-specification:Myriad-Roman;writing-mode:lr-tb;fill:#231f20;fill-opacity:1;fill-rule:nonzero;stroke:none"
               id="text77959"><tspan
                 x="0 9.1260176 19.007891 23.219101 33.137199 39.095322 42.9109 53.062901 62.080898"
                 y="0"
                 id="tspan77955">Point de </tspan><tspan
                 x="12.1672 19.2952 29.1772 35.495087 41.453083 45.665085"
                 y="21.5996"
                 id="tspan77957">sortie</tspan></text></g><path
             d="m 2609.17,2295 c 0,-190.54 -185.81,-345 -415,-345 -229.2,0 -415,154.46 -415,345 0,190.54 185.8,345 415,345 229.19,0 415,-154.46 415,-345"
             style="fill:#ffffff;fill-opacity:1;fill-rule:nonzero;stroke:none"
             id="path77961" /><path
             d="m 2609.17,2295 c 0,-190.54 -185.81,-345 -415,-345 -229.2,0 -415,154.46 -415,345 0,190.54 185.8,345 415,345 229.19,0 415,-154.46 415,-345 z"
             style="fill:none;stroke:#231f20;stroke-width:20;stroke-linecap:butt;stroke-linejoin:miter;stroke-miterlimit:4;stroke-dasharray:none;stroke-opacity:1"
             id="path77963" /><path
             d="M 2194.59,1890 V 520"
             style="fill:#231f20;fill-opacity:1;fill-rule:nonzero;stroke:none"
             id="path77965" /><path
             d="m 2204.84,496.379 c 4.99,16.531 9.59,27.281 14.92,40.543 h -50.45 c 2.26,-4.742 9.93,-24.012 14.92,-40.543 5.35,-17.699 9,-33.738 10.31,-44.141 1.3,10.403 4.96,26.442 10.3,44.141"
             style="fill:#231f20;fill-opacity:1;fill-rule:nonzero;stroke:none"
             id="path77967" /><path
             d="M 2194.59,1890 V 520"
             style="fill:none;stroke:#231f20;stroke-width:20;stroke-linecap:butt;stroke-linejoin:miter;stroke-miterlimit:4;stroke-dasharray:none;stroke-opacity:1"
             id="path77969" /><path
             d="m 2215.09,472.762 c 9.99,33.066 19.19,54.558 29.83,81.09 h -100.89 c 4.51,-9.493 19.86,-48.024 29.84,-81.09 10.69,-35.391 18.01,-67.481 20.61,-88.293 2.61,20.812 9.92,52.902 20.61,88.293"
             style="fill:#231f20;fill-opacity:1;fill-rule:nonzero;stroke:none"
             id="path77971" /><g
             id="g77973"
             transform="scale(10)"><text
               transform="matrix(1,0,0,-1,199.608,238)"
               style="font-variant:normal;font-weight:normal;font-size:18px;font-family:Myriad;-inkscape-font-specification:Myriad-Roman;writing-mode:lr-tb;fill:#231f20;fill-opacity:1;fill-rule:nonzero;stroke:none"
               id="text77979"><tspan
                 x="0 9.1260176 19.007938 23.2199 33.138"
                 y="0"
                 id="tspan77975">Point</tspan><tspan
                 x="-11.4031 -1.2510999 2.1329 11.1509 21.069147 27.025801 32.912106 41.929825"
                 y="21.5996"
                 id="tspan77977">d'entrée</tspan></text></g><path
             d="m 1614.17,980 h 1180 v 470 h -1180 z"
             style="fill:#ffffff;fill-opacity:1;fill-rule:nonzero;stroke:none"
             id="path77981" /><path
             d="m 1614.17,980 h 1180 v 470 h -1180 z"
             style="fill:none;stroke:#231f20;stroke-width:20;stroke-linecap:butt;stroke-linejoin:miter;stroke-miterlimit:4;stroke-dasharray:none;stroke-opacity:1"
             id="path77983" /><path
             d="M 5194.59,370 V 1800.42"
             style="fill:#231f20;fill-opacity:1;fill-rule:nonzero;stroke:none"
             id="path77985" /><path
             d="m 5184.34,1824.04 c -4.99,-16.54 -9.59,-27.28 -14.92,-40.54 h 50.44 c -2.24,4.74 -9.92,24 -14.91,40.54 -5.34,17.69 -9,33.74 -10.3,44.14 -1.31,-10.4 -4.96,-26.45 -10.31,-44.14"
             style="fill:#231f20;fill-opacity:1;fill-rule:nonzero;stroke:none"
             id="path77987" /><path
             d="M 5194.59,370 V 1800.42"
             style="fill:none;stroke:#231f20;stroke-width:20;stroke-linecap:butt;stroke-linejoin:miter;stroke-miterlimit:4;stroke-dasharray:none;stroke-opacity:1"
             id="path77989" /><path
             d="m 5174.09,1847.66 c -9.99,-33.07 -19.19,-54.56 -29.83,-81.09 h 100.89 c -4.52,9.49 -19.86,48.02 -29.84,81.09 -10.69,35.39 -18.01,67.48 -20.61,88.29 -2.61,-20.81 -9.92,-52.9 -20.61,-88.29"
             style="fill:#231f20;fill-opacity:1;fill-rule:nonzero;stroke:none"
             id="path77991" /><g
             id="g77993"
             transform="scale(10)"><text
               transform="matrix(1,0,0,-1,197.25,116.217)"
               style="font-variant:normal;font-weight:normal;font-size:18px;font-family:Myriad;-inkscape-font-specification:Myriad-Roman;writing-mode:lr-tb;fill:#231f20;fill-opacity:1;fill-rule:nonzero;stroke:none"
               id="text77997"><tspan
                 x="0 4.3017864 16.146233 25.722019 37.368"
                 y="0"
                 id="tspan77995">INPUT</tspan></text></g><path
             d="m 4616.25,995 h 1180 v 470 h -1180 z"
             style="fill:#ffffff;fill-opacity:1;fill-rule:nonzero;stroke:none"
             id="path77999" /><path
             d="m 4616.25,995 h 1180 v 470 h -1180 z"
             style="fill:none;stroke:#231f20;stroke-width:20;stroke-linecap:butt;stroke-linejoin:miter;stroke-miterlimit:4;stroke-dasharray:none;stroke-opacity:1"
             id="path78001" /><g
             id="g78003"
             transform="scale(10)"><text
               transform="matrix(1,0,0,-1,489.035,117.717)"
               style="font-variant:normal;font-weight:normal;font-size:18px;font-family:Myriad;-inkscape-font-specification:Myriad-Roman;writing-mode:lr-tb;fill:#231f20;fill-opacity:1;fill-rule:nonzero;stroke:none"
               id="text78007"><tspan
                 x="0 12.402 24.048 32.993999 42.57 54.215073"
                 y="0"
                 id="tspan78005">OUTPUT</tspan></text></g></g></g></g></g></svg>
